<svg width="200" height="200" viewBox="0 0 200 200" fill="none" xmlns="http://www.w3.org/2000/svg">
<rect width="200" height="200" fill="white"/>
<rect x="30" y="30" width="60" height="60" fill="black"/>
<rect x="40" y="40" width="40" height="40" fill="white"/>
<rect x="50" y="50" width="20" height="20" fill="black"/>
<rect x="110" y="30" width="60" height="60" fill="black"/>
<rect x="120" y="40" width="40" height="40" fill="white"/>
<rect x="130" y="50" width="20" height="20" fill="black"/>
<rect x="30" y="110" width="60" height="60" fill="black"/>
<rect x="40" y="120" width="40" height="40" fill="white"/>
<rect x="50" y="130" width="20" height="20" fill="black"/>
<rect x="110" y="110" width="10" height="10" fill="black"/>
<rect x="130" y="110" width="10" height="10" fill="black"/>
<rect x="150" y="110" width="10" height="10" fill="black"/>
<rect x="110" y="130" width="10" height="10" fill="black"/>
<rect x="130" y="130" width="10" height="10" fill="black"/>
<rect x="160" y="140" width="10" height="10" fill="black"/>
<rect x="110" y="150" width="10" height="10" fill="black"/>
<rect x="140" y="160" width="10" height="10" fill="black"/>
<rect x="160" y="160" width="10" height="10" fill="black"/>
<rect x="90" y="90" width="10" height="10" fill="black"/>
<rect x="100" y="100" width="10" height="10" fill="black"/>
<rect x="90" y="110" width="10" height="10" fill="black"/>
<rect x="30" y="100" width="10" height="10" fill="black"/>
<rect x="100" y="30" width="10" height="10" fill="black"/>
<rect x="100" y="90" width="10" height="10" fill="black"/>
<rect x="170" y="100" width="10" height="10" fill="black"/>
<rect x="90" y="170" width="10" height="10" fill="black"/>
<rect x="110" y="170" width="10" height="10" fill="black"/>
<rect x="130" y="170" width="10" height="10" fill="black"/>
</svg>
